<mxfile host="app.diagrams.net" modified="2023-06-11T15:54:42.883Z" agent="5.0 (Windows)" etag="C775_cCWXYA8jZhQzN9M" version="20.6.2" type="github">
  <diagram id="prtHgNgQTEPvFCAcTncT" name="Page-1">
    <mxGraphModel dx="1038" dy="564" grid="1" gridSize="10" guides="1" tooltips="1" connect="1" arrows="1" fold="1" page="1" pageScale="1" pageWidth="827" pageHeight="1169" background="#DAD2D8" math="0" shadow="0">
      <root>
        <mxCell id="0" />
        <mxCell id="1" parent="0" />
        <mxCell id="7FiAT7_QHWTsFsp25S6e-5" style="edgeStyle=orthogonalEdgeStyle;rounded=0;orthogonalLoop=1;jettySize=auto;html=1;fontSize=18;entryX=0.5;entryY=0;entryDx=0;entryDy=0;labelBackgroundColor=#DAD2D8;strokeColor=#A8201A;fontColor=#143642;" edge="1" parent="1" source="7FiAT7_QHWTsFsp25S6e-1" target="7FiAT7_QHWTsFsp25S6e-6">
          <mxGeometry relative="1" as="geometry">
            <mxPoint x="370" y="100" as="targetPoint" />
            <Array as="points">
              <mxPoint x="370" y="120" />
            </Array>
          </mxGeometry>
        </mxCell>
        <mxCell id="7FiAT7_QHWTsFsp25S6e-1" value="&lt;font style=&quot;font-size: 18px;&quot;&gt;&lt;b&gt;INPUT-TOPIC&lt;/b&gt;&lt;/font&gt;" style="rounded=0;whiteSpace=wrap;html=1;fillColor=#FAE5C7;strokeColor=#0F8B8D;fontColor=#143642;" vertex="1" parent="1">
          <mxGeometry x="280" y="20" width="180" height="60" as="geometry" />
        </mxCell>
        <mxCell id="7FiAT7_QHWTsFsp25S6e-8" style="edgeStyle=orthogonalEdgeStyle;rounded=0;orthogonalLoop=1;jettySize=auto;html=1;fontSize=18;labelBackgroundColor=#DAD2D8;strokeColor=#A8201A;fontColor=#143642;" edge="1" parent="1" source="7FiAT7_QHWTsFsp25S6e-6" target="7FiAT7_QHWTsFsp25S6e-7">
          <mxGeometry relative="1" as="geometry">
            <Array as="points">
              <mxPoint x="370" y="190" />
              <mxPoint x="160" y="190" />
            </Array>
          </mxGeometry>
        </mxCell>
        <mxCell id="7FiAT7_QHWTsFsp25S6e-10" style="edgeStyle=orthogonalEdgeStyle;rounded=0;orthogonalLoop=1;jettySize=auto;html=1;exitX=0.5;exitY=1;exitDx=0;exitDy=0;fontSize=18;labelBackgroundColor=#DAD2D8;strokeColor=#A8201A;fontColor=#143642;" edge="1" parent="1" source="7FiAT7_QHWTsFsp25S6e-6" target="7FiAT7_QHWTsFsp25S6e-9">
          <mxGeometry relative="1" as="geometry" />
        </mxCell>
        <mxCell id="7FiAT7_QHWTsFsp25S6e-12" style="edgeStyle=orthogonalEdgeStyle;rounded=0;orthogonalLoop=1;jettySize=auto;html=1;exitX=0.5;exitY=1;exitDx=0;exitDy=0;fontSize=18;labelBackgroundColor=#DAD2D8;strokeColor=#A8201A;fontColor=#143642;" edge="1" parent="1" source="7FiAT7_QHWTsFsp25S6e-6" target="7FiAT7_QHWTsFsp25S6e-11">
          <mxGeometry relative="1" as="geometry">
            <Array as="points">
              <mxPoint x="370" y="190" />
              <mxPoint x="575" y="190" />
            </Array>
          </mxGeometry>
        </mxCell>
        <mxCell id="7FiAT7_QHWTsFsp25S6e-6" value="kafkaConsumer" style="shape=process;whiteSpace=wrap;html=1;backgroundOutline=1;fontSize=18;fillColor=#FAE5C7;strokeColor=#0F8B8D;fontColor=#143642;" vertex="1" parent="1">
          <mxGeometry x="275" y="120" width="190" height="60" as="geometry" />
        </mxCell>
        <mxCell id="7FiAT7_QHWTsFsp25S6e-14" style="edgeStyle=orthogonalEdgeStyle;rounded=0;orthogonalLoop=1;jettySize=auto;html=1;exitX=0.5;exitY=1;exitDx=0;exitDy=0;fontSize=18;entryX=0.5;entryY=0;entryDx=0;entryDy=0;labelBackgroundColor=#DAD2D8;strokeColor=#A8201A;fontColor=#143642;" edge="1" parent="1" source="7FiAT7_QHWTsFsp25S6e-7" target="7FiAT7_QHWTsFsp25S6e-15">
          <mxGeometry relative="1" as="geometry">
            <mxPoint x="160" y="310" as="targetPoint" />
          </mxGeometry>
        </mxCell>
        <mxCell id="7FiAT7_QHWTsFsp25S6e-7" value="fhr1Stream" style="shape=process;whiteSpace=wrap;html=1;backgroundOutline=1;fontSize=18;fillColor=#FAE5C7;strokeColor=#0F8B8D;fontColor=#143642;" vertex="1" parent="1">
          <mxGeometry x="65" y="220" width="190" height="60" as="geometry" />
        </mxCell>
        <mxCell id="7FiAT7_QHWTsFsp25S6e-18" style="edgeStyle=orthogonalEdgeStyle;rounded=0;orthogonalLoop=1;jettySize=auto;html=1;exitX=0.5;exitY=1;exitDx=0;exitDy=0;fontSize=18;labelBackgroundColor=#DAD2D8;strokeColor=#A8201A;fontColor=#143642;" edge="1" parent="1" source="7FiAT7_QHWTsFsp25S6e-9">
          <mxGeometry relative="1" as="geometry">
            <mxPoint x="370" y="330" as="targetPoint" />
          </mxGeometry>
        </mxCell>
        <mxCell id="7FiAT7_QHWTsFsp25S6e-9" value="fhr2Stream" style="shape=process;whiteSpace=wrap;html=1;backgroundOutline=1;fontSize=18;fillColor=#FAE5C7;strokeColor=#0F8B8D;fontColor=#143642;" vertex="1" parent="1">
          <mxGeometry x="275" y="220" width="190" height="60" as="geometry" />
        </mxCell>
        <mxCell id="7FiAT7_QHWTsFsp25S6e-21" style="edgeStyle=orthogonalEdgeStyle;rounded=0;orthogonalLoop=1;jettySize=auto;html=1;exitX=0.5;exitY=1;exitDx=0;exitDy=0;entryX=0.5;entryY=0;entryDx=0;entryDy=0;fontSize=18;labelBackgroundColor=#DAD2D8;strokeColor=#A8201A;fontColor=#143642;" edge="1" parent="1" source="7FiAT7_QHWTsFsp25S6e-11" target="7FiAT7_QHWTsFsp25S6e-20">
          <mxGeometry relative="1" as="geometry" />
        </mxCell>
        <mxCell id="7FiAT7_QHWTsFsp25S6e-11" value="fhr3Stream" style="shape=process;whiteSpace=wrap;html=1;backgroundOutline=1;fontSize=18;fillColor=#FAE5C7;strokeColor=#0F8B8D;fontColor=#143642;" vertex="1" parent="1">
          <mxGeometry x="480" y="220" width="190" height="60" as="geometry" />
        </mxCell>
        <mxCell id="7FiAT7_QHWTsFsp25S6e-25" style="edgeStyle=orthogonalEdgeStyle;rounded=0;orthogonalLoop=1;jettySize=auto;html=1;exitX=0.5;exitY=1;exitDx=0;exitDy=0;entryX=0.5;entryY=0;entryDx=0;entryDy=0;fontSize=18;labelBackgroundColor=#DAD2D8;strokeColor=#A8201A;fontColor=#143642;" edge="1" parent="1" source="7FiAT7_QHWTsFsp25S6e-15" target="7FiAT7_QHWTsFsp25S6e-22">
          <mxGeometry relative="1" as="geometry" />
        </mxCell>
        <mxCell id="7FiAT7_QHWTsFsp25S6e-15" value="FHR1-TOPIC" style="rounded=0;whiteSpace=wrap;html=1;fontSize=18;fillColor=#FAE5C7;strokeColor=#0F8B8D;fontColor=#143642;" vertex="1" parent="1">
          <mxGeometry x="95" y="330" width="130" height="60" as="geometry" />
        </mxCell>
        <mxCell id="7FiAT7_QHWTsFsp25S6e-28" style="edgeStyle=orthogonalEdgeStyle;rounded=0;orthogonalLoop=1;jettySize=auto;html=1;exitX=0.5;exitY=1;exitDx=0;exitDy=0;entryX=0.5;entryY=0;entryDx=0;entryDy=0;fontSize=18;labelBackgroundColor=#DAD2D8;strokeColor=#A8201A;fontColor=#143642;" edge="1" parent="1" source="7FiAT7_QHWTsFsp25S6e-19" target="7FiAT7_QHWTsFsp25S6e-23">
          <mxGeometry relative="1" as="geometry" />
        </mxCell>
        <mxCell id="7FiAT7_QHWTsFsp25S6e-19" value="FHR2-TOPIC" style="rounded=0;whiteSpace=wrap;html=1;fontSize=18;fillColor=#FAE5C7;strokeColor=#0F8B8D;fontColor=#143642;" vertex="1" parent="1">
          <mxGeometry x="305" y="330" width="130" height="60" as="geometry" />
        </mxCell>
        <mxCell id="7FiAT7_QHWTsFsp25S6e-29" style="edgeStyle=orthogonalEdgeStyle;rounded=0;orthogonalLoop=1;jettySize=auto;html=1;exitX=0.5;exitY=1;exitDx=0;exitDy=0;fontSize=18;labelBackgroundColor=#DAD2D8;strokeColor=#A8201A;fontColor=#143642;" edge="1" parent="1" source="7FiAT7_QHWTsFsp25S6e-20" target="7FiAT7_QHWTsFsp25S6e-24">
          <mxGeometry relative="1" as="geometry" />
        </mxCell>
        <mxCell id="7FiAT7_QHWTsFsp25S6e-20" value="FHR3-TOPIC" style="rounded=0;whiteSpace=wrap;html=1;fontSize=18;fillColor=#FAE5C7;strokeColor=#0F8B8D;fontColor=#143642;" vertex="1" parent="1">
          <mxGeometry x="510" y="330" width="130" height="60" as="geometry" />
        </mxCell>
        <mxCell id="7FiAT7_QHWTsFsp25S6e-36" style="edgeStyle=orthogonalEdgeStyle;rounded=0;orthogonalLoop=1;jettySize=auto;html=1;exitX=0.5;exitY=1;exitDx=0;exitDy=0;entryX=0.5;entryY=0;entryDx=0;entryDy=0;fontSize=14;labelBackgroundColor=#DAD2D8;strokeColor=#A8201A;fontColor=#143642;" edge="1" parent="1" source="7FiAT7_QHWTsFsp25S6e-22" target="7FiAT7_QHWTsFsp25S6e-30">
          <mxGeometry relative="1" as="geometry" />
        </mxCell>
        <mxCell id="7FiAT7_QHWTsFsp25S6e-22" value="&lt;font style=&quot;font-size: 14px;&quot;&gt;fhr1ProcessStream&lt;/font&gt;" style="shape=process;whiteSpace=wrap;html=1;backgroundOutline=1;fontSize=18;fillColor=#FAE5C7;strokeColor=#0F8B8D;fontColor=#143642;" vertex="1" parent="1">
          <mxGeometry x="65" y="480" width="190" height="60" as="geometry" />
        </mxCell>
        <mxCell id="7FiAT7_QHWTsFsp25S6e-37" style="edgeStyle=orthogonalEdgeStyle;rounded=0;orthogonalLoop=1;jettySize=auto;html=1;exitX=0.5;exitY=1;exitDx=0;exitDy=0;entryX=0.5;entryY=0;entryDx=0;entryDy=0;fontSize=14;labelBackgroundColor=#DAD2D8;strokeColor=#A8201A;fontColor=#143642;" edge="1" parent="1" source="7FiAT7_QHWTsFsp25S6e-23" target="7FiAT7_QHWTsFsp25S6e-33">
          <mxGeometry relative="1" as="geometry" />
        </mxCell>
        <mxCell id="7FiAT7_QHWTsFsp25S6e-23" value="&lt;font style=&quot;font-size: 14px;&quot;&gt;fhr2ProcessStream&lt;/font&gt;" style="shape=process;whiteSpace=wrap;html=1;backgroundOutline=1;fontSize=18;fillColor=#FAE5C7;strokeColor=#0F8B8D;fontColor=#143642;" vertex="1" parent="1">
          <mxGeometry x="275" y="480" width="190" height="60" as="geometry" />
        </mxCell>
        <mxCell id="7FiAT7_QHWTsFsp25S6e-38" style="edgeStyle=orthogonalEdgeStyle;rounded=0;orthogonalLoop=1;jettySize=auto;html=1;exitX=0.5;exitY=1;exitDx=0;exitDy=0;fontSize=14;labelBackgroundColor=#DAD2D8;strokeColor=#A8201A;fontColor=#143642;" edge="1" parent="1" source="7FiAT7_QHWTsFsp25S6e-24" target="7FiAT7_QHWTsFsp25S6e-34">
          <mxGeometry relative="1" as="geometry" />
        </mxCell>
        <mxCell id="7FiAT7_QHWTsFsp25S6e-24" value="&lt;font style=&quot;font-size: 14px;&quot;&gt;fhr3ProcessStream&lt;/font&gt;" style="shape=process;whiteSpace=wrap;html=1;backgroundOutline=1;fontSize=18;fillColor=#FAE5C7;strokeColor=#0F8B8D;fontColor=#143642;" vertex="1" parent="1">
          <mxGeometry x="480" y="480" width="190" height="60" as="geometry" />
        </mxCell>
        <mxCell id="7FiAT7_QHWTsFsp25S6e-30" value="AI MODEL" style="rhombus;whiteSpace=wrap;html=1;fontSize=14;fillColor=#FAE5C7;strokeColor=#0F8B8D;fontColor=#143642;" vertex="1" parent="1">
          <mxGeometry x="120" y="600" width="80" height="80" as="geometry" />
        </mxCell>
        <mxCell id="7FiAT7_QHWTsFsp25S6e-33" value="AI MODEL" style="rhombus;whiteSpace=wrap;html=1;fontSize=14;fillColor=#FAE5C7;strokeColor=#0F8B8D;fontColor=#143642;" vertex="1" parent="1">
          <mxGeometry x="330" y="600" width="80" height="80" as="geometry" />
        </mxCell>
        <mxCell id="7FiAT7_QHWTsFsp25S6e-34" value="AI MODEL" style="rhombus;whiteSpace=wrap;html=1;fontSize=14;fillColor=#FAE5C7;strokeColor=#0F8B8D;fontColor=#143642;" vertex="1" parent="1">
          <mxGeometry x="535" y="600" width="80" height="80" as="geometry" />
        </mxCell>
        <mxCell id="7FiAT7_QHWTsFsp25S6e-42" value="" style="edgeStyle=none;orthogonalLoop=1;jettySize=auto;html=1;rounded=0;fontSize=14;labelBackgroundColor=#DAD2D8;strokeColor=#A8201A;fontColor=#143642;" edge="1" parent="1">
          <mxGeometry width="80" relative="1" as="geometry">
            <mxPoint x="420" y="360" as="sourcePoint" />
            <mxPoint x="500" y="360" as="targetPoint" />
            <Array as="points" />
          </mxGeometry>
        </mxCell>
        <mxCell id="7FiAT7_QHWTsFsp25S6e-48" value="" style="group;fontColor=#143642;" vertex="1" connectable="0" parent="1">
          <mxGeometry x="30" y="90" width="665" height="470" as="geometry" />
        </mxCell>
        <mxCell id="7FiAT7_QHWTsFsp25S6e-45" value="" style="endArrow=none;html=1;rounded=0;fontSize=14;labelBackgroundColor=#DAD2D8;strokeColor=#A8201A;fontColor=#143642;" edge="1" parent="7FiAT7_QHWTsFsp25S6e-48">
          <mxGeometry width="50" height="50" relative="1" as="geometry">
            <mxPoint as="sourcePoint" />
            <mxPoint x="665" as="targetPoint" />
            <Array as="points">
              <mxPoint y="470" />
              <mxPoint x="665" y="470" />
            </Array>
          </mxGeometry>
        </mxCell>
        <mxCell id="7FiAT7_QHWTsFsp25S6e-46" value="" style="endArrow=none;html=1;rounded=0;fontSize=14;labelBackgroundColor=#DAD2D8;strokeColor=#A8201A;fontColor=#143642;" edge="1" parent="7FiAT7_QHWTsFsp25S6e-48">
          <mxGeometry width="50" height="50" relative="1" as="geometry">
            <mxPoint as="sourcePoint" />
            <mxPoint x="665" as="targetPoint" />
          </mxGeometry>
        </mxCell>
        <mxCell id="7FiAT7_QHWTsFsp25S6e-49" value="&lt;div&gt;FLINK&lt;/div&gt;&lt;div&gt;&lt;br&gt;&lt;/div&gt;" style="text;html=1;align=center;verticalAlign=middle;resizable=0;points=[];autosize=1;strokeColor=none;fillColor=none;fontSize=14;fontColor=#143642;" vertex="1" parent="1">
          <mxGeometry x="40" y="60" width="60" height="50" as="geometry" />
        </mxCell>
        <mxCell id="7FiAT7_QHWTsFsp25S6e-50" value="" style="endArrow=classic;startArrow=classic;html=1;rounded=0;fontSize=14;labelBackgroundColor=#DAD2D8;strokeColor=#A8201A;fontColor=#143642;" edge="1" parent="1">
          <mxGeometry width="50" height="50" relative="1" as="geometry">
            <mxPoint x="710" y="330" as="sourcePoint" />
            <mxPoint x="710" y="130" as="targetPoint" />
            <Array as="points">
              <mxPoint x="750" y="330" />
              <mxPoint x="750" y="130" />
            </Array>
          </mxGeometry>
        </mxCell>
        <mxCell id="7FiAT7_QHWTsFsp25S6e-51" value="&lt;div&gt;1-4 ms&lt;/div&gt;&lt;div&gt;&lt;br&gt;&lt;/div&gt;" style="text;html=1;align=center;verticalAlign=middle;resizable=0;points=[];autosize=1;strokeColor=none;fillColor=none;fontSize=14;fontColor=#143642;" vertex="1" parent="1">
          <mxGeometry x="755" y="205" width="70" height="50" as="geometry" />
        </mxCell>
        <mxCell id="7FiAT7_QHWTsFsp25S6e-52" value="" style="endArrow=classic;startArrow=classic;html=1;rounded=0;fontSize=14;labelBackgroundColor=#DAD2D8;strokeColor=#A8201A;fontColor=#143642;" edge="1" parent="1">
          <mxGeometry width="50" height="50" relative="1" as="geometry">
            <mxPoint x="700" y="520" as="sourcePoint" />
            <mxPoint x="710" y="350" as="targetPoint" />
            <Array as="points">
              <mxPoint x="750" y="520" />
              <mxPoint x="750" y="350" />
            </Array>
          </mxGeometry>
        </mxCell>
        <mxCell id="7FiAT7_QHWTsFsp25S6e-53" value="3-5 ms" style="text;html=1;align=center;verticalAlign=middle;resizable=0;points=[];autosize=1;strokeColor=none;fillColor=none;fontSize=14;fontColor=#143642;" vertex="1" parent="1">
          <mxGeometry x="745" y="415" width="70" height="30" as="geometry" />
        </mxCell>
        <mxCell id="7FiAT7_QHWTsFsp25S6e-54" value="" style="endArrow=classic;startArrow=classic;html=1;rounded=0;fontSize=14;labelBackgroundColor=#DAD2D8;strokeColor=#A8201A;fontColor=#143642;" edge="1" parent="1">
          <mxGeometry width="50" height="50" relative="1" as="geometry">
            <mxPoint x="700" y="640" as="sourcePoint" />
            <mxPoint x="700" y="540" as="targetPoint" />
            <Array as="points">
              <mxPoint x="740" y="640" />
              <mxPoint x="740" y="540" />
            </Array>
          </mxGeometry>
        </mxCell>
        <mxCell id="7FiAT7_QHWTsFsp25S6e-55" value="&lt;div&gt;17-22 ms&lt;/div&gt;" style="text;html=1;align=center;verticalAlign=middle;resizable=0;points=[];autosize=1;strokeColor=none;fillColor=none;fontSize=14;fontColor=#143642;" vertex="1" parent="1">
          <mxGeometry x="740" y="585" width="80" height="30" as="geometry" />
        </mxCell>
      </root>
    </mxGraphModel>
  </diagram>
</mxfile>
